<?xml version="1.0" encoding="UTF-8"?>
<svg xmlns="http://www.w3.org/2000/svg" xmlns:xlink="http://www.w3.org/1999/xlink" width="600pt" height="599.999999pt" viewBox="0 0 600 599.999999" version="1.2">
<defs>
<clipPath id="clip1">
  <path d="M 45.6875 101.195312 L 285.6875 101.195312 L 285.6875 249.695312 L 45.6875 249.695312 Z M 45.6875 101.195312 "/>
</clipPath>
<clipPath id="clip2">
  <path d="M 264.769531 307.066406 L 504.769531 307.066406 L 504.769531 455.566406 L 264.769531 455.566406 Z M 264.769531 307.066406 "/>
</clipPath>
</defs>
<g id="surface1">
<g clip-path="url(#clip1)" clip-rule="nonzero">
<path style=" stroke:none;fill-rule:nonzero;fill:rgb(86.669922%,96.859741%,95.689392%);fill-opacity:1;" d="M 275.472656 208.671875 C 273.089844 212.757812 269.566406 215.921875 265.460938 218.070312 C 261.355469 220.21875 256.671875 221.34375 252.003906 221.34375 C 249.867188 221.34375 247.730469 221.109375 245.652344 220.628906 C 244.90625 220.453125 244.109375 220.140625 243.277344 219.855469 C 242.445312 219.570312 241.578125 219.308594 240.65625 219.308594 C 240.171875 219.308594 239.671875 219.386719 239.1875 219.574219 C 238.695312 219.761719 238.222656 220.0625 237.785156 220.480469 C 237.207031 221.03125 236.839844 221.738281 236.507812 222.433594 C 236.1875 223.125 235.910156 223.8125 235.640625 224.289062 C 234.84375 225.691406 233.917969 227.03125 232.9375 228.34375 C 229.441406 233.039062 224.613281 236.75 219.402344 239.449219 C 214.246094 242.113281 208.628906 243.390625 202.996094 243.390625 C 196.890625 243.390625 190.769531 241.886719 185.214844 239.03125 C 179.894531 236.300781 175.222656 232.285156 171.726562 227.445312 C 171.089844 226.566406 170.503906 225.738281 169.804688 225.085938 C 169.457031 224.761719 169.074219 224.480469 168.640625 224.277344 C 168.207031 224.074219 167.722656 223.960938 167.207031 223.960938 C 166.410156 223.960938 165.570312 224.222656 164.632812 224.742188 C 161.386719 226.53125 158.117188 228.25 154.746094 229.734375 C 150.410156 231.644531 145.695312 232.980469 141.023438 232.976562 C 139.285156 232.976562 137.550781 232.792969 135.835938 232.386719 C 133.351562 231.796875 130.859375 230.691406 128.773438 229.132812 C 126.6875 227.574219 125.003906 225.570312 124.078125 223.175781 C 123.773438 222.398438 123.328125 221.4375 122.6875 220.621094 C 122.367188 220.214844 121.992188 219.839844 121.546875 219.554688 C 121.105469 219.269531 120.574219 219.078125 119.996094 219.082031 C 119.320312 219.078125 118.621094 219.339844 117.949219 219.847656 C 115.789062 221.464844 113.507812 222.113281 110.855469 222.117188 C 110.597656 222.117188 110.332031 222.109375 110.066406 222.097656 C 107.039062 221.953125 104.414062 220.714844 102.160156 218.847656 C 99.914062 216.984375 98.058594 214.488281 96.652344 211.910156 C 95.820312 210.386719 95.167969 208.757812 94.582031 207.089844 C 94.292969 206.277344 94.050781 205.453125 93.574219 204.707031 C 93.335938 204.332031 93.03125 203.980469 92.640625 203.695312 C 92.25 203.40625 91.777344 203.1875 91.222656 203.046875 C 90.949219 202.976562 90.675781 202.945312 90.410156 202.945312 C 89.535156 202.945312 88.796875 203.308594 88.195312 203.742188 C 87.589844 204.179688 87.082031 204.703125 86.628906 205.132812 C 85.058594 206.617188 83.425781 208 81.652344 209.203125 C 79.402344 210.730469 76.9375 211.734375 74.425781 211.734375 C 73.554688 211.734375 72.675781 211.613281 71.785156 211.351562 C 70.605469 211.007812 69.414062 210.332031 68.550781 209.46875 C 68.117188 209.035156 67.765625 208.554688 67.527344 208.050781 C 67.289062 207.546875 67.15625 207.019531 67.15625 206.460938 C 67.15625 206.089844 67.214844 205.699219 67.347656 205.296875 C 67.457031 204.957031 67.511719 204.625 67.511719 204.304688 C 67.511719 204.046875 67.476562 203.804688 67.414062 203.574219 C 67.414062 203.566406 67.410156 203.5625 67.410156 203.554688 C 67.40625 203.550781 67.40625 203.546875 67.40625 203.542969 C 67.316406 203.183594 67.148438 202.832031 66.898438 202.519531 C 66.636719 202.203125 66.296875 201.925781 65.882812 201.714844 C 57.453125 197.402344 52.003906 188.234375 52.007812 178.84375 C 52.007812 177.519531 52.117188 176.191406 52.339844 174.867188 C 53.269531 169.335938 56.355469 164.453125 60.605469 160.859375 C 64.855469 157.265625 70.265625 154.976562 75.785156 154.613281 C 75.992188 154.601562 76.222656 154.597656 76.460938 154.597656 C 76.988281 154.59375 77.570312 154.621094 78.167969 154.621094 C 79.085938 154.617188 80.046875 154.566406 80.933594 154.167969 C 81.375 153.972656 81.792969 153.675781 82.136719 153.273438 C 82.476562 152.867188 82.738281 152.359375 82.902344 151.753906 C 83.332031 150.207031 83.648438 148.773438 84.054688 147.398438 C 84.460938 146.019531 84.953125 144.703125 85.730469 143.359375 C 88.753906 138.121094 94.222656 134.472656 100.222656 133.691406 C 101.03125 133.585938 101.84375 133.535156 102.65625 133.535156 C 105.074219 133.535156 107.484375 133.984375 109.824219 134.746094 C 110.742188 135.042969 111.65625 135.402344 112.601562 135.695312 C 113.542969 135.992188 114.515625 136.21875 115.546875 136.21875 C 116.585938 136.222656 117.675781 135.976562 118.765625 135.359375 C 120.179688 134.566406 121.132812 133.453125 121.90625 132.285156 C 122.679688 131.113281 123.296875 129.882812 124.035156 128.753906 C 125.878906 125.929688 128.34375 123.484375 130.933594 121.242188 C 141.050781 112.480469 154.667969 107.605469 168.054688 107.605469 C 179.984375 107.605469 191.710938 111.464844 200.671875 119.835938 C 204.894531 123.78125 208.234375 128.550781 210.667969 133.792969 C 211.8125 136.253906 212.613281 138.902344 213.214844 141.582031 C 213.515625 142.910156 213.714844 144.261719 213.847656 145.632812 C 213.875 145.902344 213.882812 146.199219 213.882812 146.511719 C 213.882812 147.089844 213.851562 147.726562 213.851562 148.371094 C 213.851562 149.101562 213.890625 149.847656 214.105469 150.570312 C 214.402344 151.574219 214.910156 152.324219 215.582031 152.785156 C 216.253906 153.246094 217.027344 153.394531 217.777344 153.394531 C 218.980469 153.390625 220.195312 153.039062 221.296875 152.773438 C 223.746094 152.171875 226.277344 151.800781 228.785156 151.800781 C 229.988281 151.800781 231.1875 151.886719 232.367188 152.070312 C 235.183594 152.511719 238.007812 153.820312 240.121094 155.753906 C 242.238281 157.695312 243.640625 160.230469 243.742188 163.1875 C 243.765625 163.972656 243.890625 164.644531 244.117188 165.21875 C 244.289062 165.652344 244.523438 166.027344 244.816406 166.339844 C 245.253906 166.804688 245.808594 167.105469 246.398438 167.277344 C 246.992188 167.453125 247.628906 167.515625 248.304688 167.515625 C 248.78125 167.515625 249.273438 167.484375 249.785156 167.4375 C 250.507812 167.371094 251.230469 167.335938 251.953125 167.335938 C 254.164062 167.335938 256.367188 167.636719 258.539062 168.148438 C 264.105469 169.464844 269.105469 172.5625 272.976562 176.761719 C 277.328125 181.488281 279.390625 187.714844 279.390625 194.015625 C 279.390625 199.125 278.035156 204.273438 275.472656 208.671875 Z M 275.46875 170.378906 C 271.699219 166.820312 267.082031 164.304688 262.214844 162.691406 C 259.742188 161.875 257.175781 161.457031 254.632812 161.207031 C 253.78125 161.125 252.933594 161.097656 252.097656 161.097656 C 251.761719 161.097656 251.425781 161.105469 251.085938 161.109375 C 250.75 161.117188 250.390625 161.164062 250.027344 161.214844 C 249.914062 161.230469 249.804688 161.246094 249.691406 161.261719 C 249.636719 160.53125 249.585938 159.757812 249.382812 159.011719 C 248.9375 157.398438 248.132812 155.90625 247.269531 154.566406 C 245.445312 151.742188 242.769531 149.539062 239.863281 147.992188 C 236.484375 146.203125 232.625 145.625 228.945312 145.558594 C 228.824219 145.558594 228.699219 145.554688 228.578125 145.554688 C 226.714844 145.554688 224.886719 145.804688 223.105469 146.058594 C 222.140625 146.203125 221.148438 146.523438 220.195312 146.796875 C 220.171875 146.359375 220.140625 145.925781 220.105469 145.503906 C 219.992188 144.109375 219.78125 142.730469 219.546875 141.378906 C 219.03125 138.359375 218.097656 135.4375 216.953125 132.632812 C 214.730469 127.1875 211.488281 122.28125 207.570312 117.933594 C 199.246094 108.683594 187.816406 103.347656 175.625 101.726562 C 173.242188 101.410156 170.84375 101.257812 168.449219 101.257812 C 157.734375 101.257812 147.042969 104.296875 137.65625 109.234375 C 131.839844 112.300781 126.398438 116.332031 121.988281 121.246094 C 119.890625 123.574219 118.101562 126.183594 116.660156 128.957031 C 116.453125 129.351562 116.230469 129.566406 115.972656 129.707031 C 115.714844 129.847656 115.402344 129.921875 115.015625 129.921875 C 114.21875 129.925781 113.152344 129.589844 112.105469 129.167969 C 111.054688 128.753906 110.03125 128.269531 109.128906 128.039062 C 107.09375 127.527344 105.003906 127.277344 102.914062 127.277344 C 97.140625 127.28125 91.386719 129.1875 86.839844 132.789062 C 84.035156 135.011719 81.746094 137.730469 79.96875 140.816406 C 79.136719 142.257812 78.515625 143.792969 77.964844 145.308594 C 77.753906 145.902344 77.628906 146.566406 77.515625 147.234375 C 77.441406 147.679688 77.371094 148.121094 77.292969 148.519531 C 76.582031 148.511719 75.789062 148.445312 75.035156 148.445312 C 74.789062 148.445312 74.546875 148.453125 74.3125 148.472656 C 72.464844 148.644531 70.652344 149.007812 68.878906 149.492188 C 65.296875 150.464844 61.914062 152.183594 58.90625 154.285156 C 53.03125 158.398438 48.640625 164.429688 46.714844 171.351562 C 46.027344 173.8125 45.699219 176.339844 45.699219 178.863281 C 45.699219 184.339844 47.234375 189.792969 49.941406 194.582031 C 52.574219 199.238281 56.324219 203.265625 60.871094 206.058594 C 60.863281 206.21875 60.847656 206.382812 60.847656 206.539062 C 60.84375 207.960938 61.183594 209.304688 61.765625 210.527344 C 62.644531 212.359375 64.070312 213.917969 65.753906 215.140625 C 67.445312 216.359375 69.40625 217.246094 71.390625 217.71875 C 72.363281 217.945312 73.335938 218.050781 74.296875 218.050781 C 77.023438 218.046875 79.65625 217.226562 82.082031 216.140625 C 84.019531 215.273438 85.757812 214.023438 87.355469 212.757812 C 88.046875 212.207031 88.722656 211.5 89.390625 210.828125 C 89.546875 211.320312 89.707031 211.8125 89.90625 212.269531 C 90.722656 214.132812 91.660156 215.914062 92.769531 217.628906 C 94.78125 220.742188 97.433594 223.378906 100.542969 225.390625 C 103.570312 227.347656 107.195312 228.214844 110.691406 228.382812 C 110.902344 228.390625 111.117188 228.394531 111.332031 228.394531 C 113.015625 228.394531 114.699219 228.097656 116.273438 227.664062 C 117.195312 227.410156 118.035156 227.019531 118.824219 226.667969 C 118.910156 226.890625 119 227.113281 119.109375 227.332031 C 119.707031 228.546875 120.515625 229.574219 121.277344 230.5625 C 123.054688 232.851562 125.484375 234.601562 127.917969 235.964844 C 131.941406 238.222656 136.46875 239.21875 140.996094 239.21875 C 142.34375 239.21875 143.695312 239.128906 145.035156 238.960938 C 152.109375 238.054688 158.605469 235.039062 164.742188 231.796875 C 165.335938 231.484375 165.917969 231.164062 166.5 230.847656 C 167.15625 231.769531 167.847656 232.664062 168.550781 233.527344 C 170.566406 236.015625 172.921875 238.1875 175.425781 240.132812 C 183.367188 246.308594 193.097656 249.625 203.035156 249.625 C 205.210938 249.625 207.398438 249.46875 209.578125 249.144531 C 221.503906 247.371094 232.183594 240.109375 239.101562 230.476562 C 239.8125 229.488281 240.445312 228.460938 241.050781 227.4375 C 241.25 227.101562 241.414062 226.730469 241.574219 226.363281 C 241.644531 226.203125 241.710938 226.046875 241.78125 225.890625 C 241.933594 225.953125 242.085938 226.019531 242.242188 226.082031 C 242.609375 226.230469 242.972656 226.382812 243.335938 226.484375 C 244.5 226.816406 245.675781 227.027344 246.832031 227.210938 C 248.570312 227.488281 250.3125 227.613281 252.058594 227.613281 C 252.902344 227.613281 253.75 227.585938 254.597656 227.527344 C 259.804688 227.171875 264.839844 225.570312 269.375 223.050781 C 274.054688 220.453125 277.761719 216.738281 280.453125 212.386719 C 283.144531 208.039062 284.824219 203.050781 285.464844 197.878906 C 285.625 196.589844 285.707031 195.300781 285.707031 194.015625 C 285.703125 185.136719 281.957031 176.511719 275.46875 170.378906 "/>
</g>
<path style=" stroke:none;fill-rule:nonzero;fill:rgb(86.669922%,96.859741%,95.689392%);fill-opacity:1;" d="M 203.519531 145.621094 C 203.859375 145.84375 204.238281 145.9375 204.605469 145.9375 C 205.074219 145.9375 205.53125 145.789062 205.902344 145.492188 C 206.089844 145.34375 206.253906 145.152344 206.371094 144.921875 C 206.492188 144.691406 206.558594 144.425781 206.558594 144.148438 C 206.558594 143.941406 206.519531 143.726562 206.449219 143.515625 L 205.761719 143.746094 L 206.449219 143.515625 C 203.667969 135.398438 198.894531 127.617188 192.539062 121.839844 C 186.1875 116.0625 178.226562 112.292969 169.15625 112.292969 C 167.949219 112.292969 166.71875 112.359375 165.472656 112.496094 C 164.898438 112.554688 164.410156 112.855469 164.117188 113.246094 C 163.816406 113.632812 163.679688 114.09375 163.675781 114.546875 C 163.679688 114.964844 163.796875 115.398438 164.09375 115.757812 C 164.238281 115.9375 164.433594 116.085938 164.65625 116.191406 C 164.882812 116.296875 165.136719 116.347656 165.398438 116.347656 C 165.476562 116.347656 165.550781 116.34375 165.628906 116.335938 C 166.765625 116.210938 167.878906 116.148438 168.976562 116.148438 C 177.136719 116.148438 184.273438 119.511719 190.046875 124.761719 C 195.820312 130.007812 200.199219 137.152344 202.757812 144.621094 C 202.902344 145.050781 203.183594 145.402344 203.519531 145.621094 "/>
<path style=" stroke:none;fill-rule:nonzero;fill:rgb(86.669922%,96.859741%,95.689392%);fill-opacity:1;" d="M 74.335938 162.609375 C 74.101562 162.492188 73.828125 162.425781 73.542969 162.425781 C 73.363281 162.425781 73.179688 162.453125 72.996094 162.503906 C 72.996094 162.503906 72.996094 162.503906 72.992188 162.503906 C 69.84375 163.390625 66.476562 164.125 63.554688 166.097656 C 60.941406 167.867188 59.292969 170.582031 58.25 173.371094 C 57.566406 175.199219 57.238281 177.238281 57.238281 179.3125 C 57.242188 181.777344 57.707031 184.304688 58.621094 186.601562 C 59.535156 188.898438 60.902344 190.972656 62.730469 192.511719 C 63.101562 192.828125 63.5625 192.984375 63.992188 192.984375 C 64.546875 192.980469 65.03125 192.753906 65.398438 192.417969 C 65.757812 192.078125 66.019531 191.605469 66.023438 191.050781 C 66.023438 190.808594 65.96875 190.558594 65.855469 190.324219 C 65.742188 190.09375 65.578125 189.882812 65.367188 189.710938 C 63.925781 188.5 62.886719 186.917969 62.203125 185.144531 C 61.515625 183.367188 61.191406 181.402344 61.191406 179.457031 C 61.191406 177.964844 61.382812 176.484375 61.738281 175.117188 C 62.117188 173.644531 62.726562 172.472656 63.507812 171.492188 C 64.679688 170.027344 66.253906 168.996094 68.078125 168.183594 C 69.902344 167.375 71.957031 166.789062 74.027344 166.210938 C 74.46875 166.089844 74.839844 165.828125 75.070312 165.492188 C 75.308594 165.15625 75.40625 164.773438 75.40625 164.40625 C 75.402344 163.925781 75.242188 163.460938 74.929688 163.082031 C 74.773438 162.894531 74.574219 162.730469 74.335938 162.609375 "/>
<path style=" stroke:none;fill-rule:nonzero;fill:rgb(86.669922%,96.859741%,95.689392%);fill-opacity:1;" d="M 110.921875 213.65625 C 110.804688 213.65625 110.6875 213.664062 110.566406 213.6875 C 110.257812 213.738281 109.949219 213.765625 109.640625 213.765625 C 108.46875 213.765625 107.308594 213.394531 106.335938 212.738281 C 105.363281 212.082031 104.585938 211.152344 104.164062 210.050781 C 104.003906 209.625 103.710938 209.285156 103.371094 209.078125 C 103.03125 208.867188 102.652344 208.777344 102.289062 208.773438 C 101.832031 208.777344 101.378906 208.914062 101.011719 209.203125 C 100.824219 209.347656 100.660156 209.53125 100.542969 209.757812 C 100.425781 209.980469 100.355469 210.246094 100.355469 210.515625 C 100.355469 210.746094 100.402344 210.980469 100.492188 211.203125 C 101.992188 215.117188 105.65625 217.578125 109.71875 217.574219 C 110.289062 217.574219 110.867188 217.527344 111.449219 217.429688 C 111.898438 217.351562 112.304688 217.128906 112.5625 216.800781 C 112.820312 216.472656 112.921875 216.082031 112.921875 215.71875 C 112.921875 215.210938 112.738281 214.726562 112.402344 214.335938 C 112.066406 213.945312 111.535156 213.652344 110.921875 213.65625 "/>
<path style=" stroke:none;fill-rule:nonzero;fill:rgb(86.669922%,96.859741%,95.689392%);fill-opacity:1;" d="M 228.261719 216.703125 C 227.945312 216.527344 227.59375 216.433594 227.234375 216.433594 C 226.867188 216.433594 226.480469 216.53125 226.148438 216.769531 C 225.808594 217 225.546875 217.371094 225.425781 217.8125 C 225.042969 219.199219 224.335938 220.449219 223.398438 221.578125 C 221.992188 223.269531 220.058594 224.675781 217.957031 225.78125 C 215.855469 226.886719 213.597656 227.691406 211.558594 228.203125 C 209.550781 228.707031 207.472656 228.953125 205.386719 228.953125 C 201.5625 228.953125 197.714844 228.128906 194.242188 226.597656 C 193.976562 226.476562 193.695312 226.421875 193.425781 226.421875 C 192.832031 226.421875 192.320312 226.691406 191.964844 227.058594 C 191.617188 227.425781 191.386719 227.90625 191.382812 228.445312 C 191.382812 228.746094 191.464844 229.066406 191.652344 229.34375 C 191.835938 229.625 192.113281 229.847656 192.441406 229.992188 C 196.570312 231.8125 200.941406 232.734375 205.351562 232.730469 C 207.980469 232.734375 210.625 232.40625 213.238281 231.746094 C 216.414062 230.949219 219.882812 229.441406 222.820312 227.28125 C 225.753906 225.121094 228.175781 222.296875 229.144531 218.835938 C 229.195312 218.65625 229.21875 218.472656 229.21875 218.296875 C 229.21875 218.011719 229.152344 217.734375 229.035156 217.5 C 228.855469 217.144531 228.574219 216.878906 228.261719 216.703125 "/>
<path style=" stroke:none;fill-rule:nonzero;fill:rgb(86.669922%,96.859741%,95.689392%);fill-opacity:1;" d="M 252.355469 172.972656 L 252.296875 172.972656 C 252.015625 172.972656 251.746094 173.027344 251.507812 173.136719 C 251.144531 173.300781 250.867188 173.574219 250.699219 173.882812 C 250.527344 174.191406 250.449219 174.53125 250.449219 174.863281 C 250.449219 175.320312 250.59375 175.78125 250.910156 176.164062 C 251.066406 176.351562 251.273438 176.515625 251.515625 176.632812 C 251.753906 176.75 252.03125 176.8125 252.316406 176.820312 C 257.121094 176.945312 261.324219 178.984375 264.371094 182.171875 C 267.417969 185.363281 269.296875 189.699219 269.417969 194.402344 C 269.425781 194.601562 269.425781 194.804688 269.425781 195.007812 C 269.429688 199.128906 268.324219 203.253906 266.082031 206.6875 C 264.742188 208.734375 262.988281 210.03125 260.957031 210.84375 C 258.929688 211.65625 256.621094 211.960938 254.253906 211.960938 C 253.734375 211.960938 253.214844 211.945312 252.695312 211.921875 L 252.582031 211.917969 C 252.308594 211.917969 252.042969 211.972656 251.808594 212.078125 C 251.453125 212.238281 251.183594 212.511719 251.015625 212.816406 C 250.847656 213.117188 250.773438 213.453125 250.773438 213.78125 C 250.773438 214.234375 250.914062 214.695312 251.226562 215.082031 C 251.535156 215.464844 252.046875 215.742188 252.621094 215.765625 C 253.191406 215.796875 253.757812 215.8125 254.324219 215.8125 C 256.972656 215.8125 259.546875 215.46875 261.929688 214.574219 C 264.3125 213.683594 266.5 212.234375 268.335938 210.074219 C 270.183594 207.894531 271.414062 205.324219 272.179688 202.628906 C 272.949219 199.929688 273.261719 197.101562 273.273438 194.386719 L 273.273438 194.296875 C 273.273438 188.570312 270.898438 183.308594 267.101562 179.453125 C 263.308594 175.59375 258.078125 173.125 252.355469 172.972656 "/>
<path style=" stroke:none;fill-rule:nonzero;fill:rgb(86.669922%,96.859741%,95.689392%);fill-opacity:1;" d="M 233.78125 157.011719 C 232.8125 156.011719 231.546875 155.433594 230.238281 155.089844 C 228.921875 154.746094 227.542969 154.632812 226.265625 154.59375 L 226.199219 154.59375 C 225.921875 154.59375 225.648438 154.648438 225.410156 154.753906 C 225.050781 154.917969 224.773438 155.195312 224.605469 155.5 C 224.433594 155.808594 224.355469 156.144531 224.355469 156.480469 C 224.359375 156.933594 224.5 157.398438 224.816406 157.78125 C 224.976562 157.96875 225.179688 158.136719 225.421875 158.25 C 225.660156 158.367188 225.933594 158.433594 226.222656 158.4375 C 227.292969 158.46875 228.554688 158.515625 229.554688 158.828125 C 230.054688 158.976562 230.480469 159.191406 230.808594 159.46875 C 231.128906 159.753906 231.367188 160.09375 231.511719 160.597656 C 231.632812 161.035156 231.894531 161.40625 232.230469 161.636719 C 232.566406 161.875 232.949219 161.972656 233.316406 161.972656 C 233.800781 161.96875 234.265625 161.8125 234.644531 161.5 C 234.835938 161.339844 235 161.144531 235.117188 160.90625 C 235.234375 160.671875 235.304688 160.398438 235.304688 160.109375 C 235.304688 159.929688 235.277344 159.75 235.226562 159.566406 C 234.9375 158.53125 234.433594 157.679688 233.78125 157.011719 "/>
<g clip-path="url(#clip2)" clip-rule="nonzero">
<path style=" stroke:none;fill-rule:nonzero;fill:rgb(100%,100%,100%);fill-opacity:1;" d="M 494.554688 414.542969 C 492.171875 418.628906 488.648438 421.792969 484.542969 423.941406 C 480.4375 426.089844 475.753906 427.214844 471.089844 427.214844 C 468.949219 427.214844 466.8125 426.980469 464.734375 426.5 C 463.988281 426.324219 463.191406 426.011719 462.359375 425.726562 C 461.527344 425.441406 460.660156 425.183594 459.738281 425.179688 C 459.253906 425.179688 458.757812 425.257812 458.269531 425.445312 C 457.78125 425.632812 457.308594 425.933594 456.867188 426.351562 C 456.289062 426.902344 455.921875 427.609375 455.59375 428.304688 C 455.269531 428.996094 454.992188 429.683594 454.722656 430.160156 C 453.925781 431.5625 453 432.902344 452.019531 434.21875 C 448.523438 438.910156 443.695312 442.625 438.484375 445.320312 C 433.328125 447.984375 427.710938 449.261719 422.082031 449.261719 C 415.976562 449.261719 409.851562 447.757812 404.296875 444.902344 C 398.980469 442.171875 394.304688 438.15625 390.808594 433.316406 C 390.171875 432.4375 389.585938 431.609375 388.890625 430.957031 C 388.539062 430.632812 388.160156 430.351562 387.722656 430.148438 C 387.289062 429.949219 386.804688 429.832031 386.289062 429.832031 C 385.492188 429.832031 384.652344 430.09375 383.714844 430.613281 C 380.46875 432.40625 377.199219 434.121094 373.828125 435.605469 C 369.492188 437.515625 364.777344 438.851562 360.105469 438.847656 C 358.367188 438.847656 356.632812 438.664062 354.917969 438.257812 C 352.433594 437.667969 349.941406 436.5625 347.859375 435.003906 C 345.769531 433.445312 344.089844 431.441406 343.160156 429.046875 C 342.855469 428.269531 342.410156 427.308594 341.769531 426.492188 C 341.449219 426.085938 341.078125 425.710938 340.628906 425.425781 C 340.1875 425.140625 339.65625 424.949219 339.078125 424.953125 C 338.402344 424.949219 337.703125 425.210938 337.03125 425.722656 C 334.871094 427.335938 332.589844 427.984375 329.941406 427.988281 C 329.679688 427.988281 329.417969 427.984375 329.148438 427.96875 C 326.121094 427.824219 323.496094 426.585938 321.246094 424.71875 C 318.996094 422.855469 317.140625 420.359375 315.734375 417.78125 C 314.902344 416.257812 314.253906 414.628906 313.664062 412.960938 C 313.375 412.148438 313.132812 411.328125 312.65625 410.578125 C 312.417969 410.203125 312.113281 409.855469 311.722656 409.566406 C 311.332031 409.277344 310.859375 409.058594 310.308594 408.921875 C 310.03125 408.847656 309.757812 408.816406 309.492188 408.816406 C 308.617188 408.816406 307.878906 409.179688 307.277344 409.613281 C 306.671875 410.054688 306.167969 410.574219 305.710938 411.003906 C 304.140625 412.488281 302.507812 413.871094 300.734375 415.074219 C 298.484375 416.601562 296.019531 417.605469 293.507812 417.605469 C 292.636719 417.605469 291.757812 417.484375 290.867188 417.226562 C 289.6875 416.878906 288.496094 416.203125 287.632812 415.339844 C 287.199219 414.90625 286.851562 414.425781 286.609375 413.921875 C 286.371094 413.417969 286.238281 412.890625 286.238281 412.332031 C 286.238281 411.960938 286.296875 411.574219 286.429688 411.167969 C 286.542969 410.828125 286.59375 410.496094 286.59375 410.175781 C 286.59375 409.917969 286.558594 409.675781 286.496094 409.445312 C 286.496094 409.4375 286.492188 409.433594 286.492188 409.425781 C 286.492188 409.421875 286.492188 409.417969 286.492188 409.417969 L 286.488281 409.417969 C 286.398438 409.054688 286.230469 408.703125 285.980469 408.390625 C 285.71875 408.074219 285.378906 407.796875 284.964844 407.585938 C 276.535156 403.277344 271.085938 394.105469 271.089844 384.714844 C 271.089844 383.390625 271.199219 382.0625 271.421875 380.738281 C 272.351562 375.207031 275.4375 370.324219 279.6875 366.730469 C 283.9375 363.140625 289.347656 360.847656 294.867188 360.484375 C 295.078125 360.472656 295.304688 360.46875 295.542969 360.46875 C 296.074219 360.464844 296.652344 360.492188 297.25 360.492188 C 298.167969 360.488281 299.128906 360.4375 300.015625 360.042969 C 300.457031 359.84375 300.878906 359.550781 301.21875 359.144531 C 301.5625 358.738281 301.820312 358.230469 301.984375 357.628906 C 302.414062 356.078125 302.730469 354.644531 303.136719 353.269531 C 303.542969 351.890625 304.035156 350.574219 304.8125 349.234375 C 307.835938 343.992188 313.304688 340.34375 319.304688 339.5625 C 320.113281 339.457031 320.929688 339.40625 321.738281 339.40625 C 324.15625 339.40625 326.566406 339.855469 328.90625 340.617188 C 329.824219 340.914062 330.738281 341.277344 331.683594 341.570312 C 332.625 341.863281 333.597656 342.089844 334.628906 342.089844 C 335.667969 342.09375 336.757812 341.847656 337.847656 341.230469 C 339.261719 340.441406 340.214844 339.324219 340.988281 338.15625 C 341.761719 336.984375 342.378906 335.753906 343.117188 334.625 C 344.964844 331.800781 347.425781 329.355469 350.015625 327.113281 C 360.136719 318.351562 373.75 313.476562 387.136719 313.476562 C 399.066406 313.476562 410.792969 317.335938 419.757812 325.707031 C 423.976562 329.652344 427.316406 334.421875 429.753906 339.664062 C 430.898438 342.125 431.695312 344.773438 432.296875 347.453125 C 432.597656 348.78125 432.796875 350.132812 432.929688 351.503906 C 432.957031 351.773438 432.96875 352.070312 432.96875 352.382812 C 432.96875 352.964844 432.933594 353.597656 432.933594 354.242188 C 432.933594 354.972656 432.972656 355.71875 433.1875 356.441406 C 433.484375 357.445312 433.992188 358.195312 434.664062 358.65625 C 435.335938 359.117188 436.109375 359.265625 436.859375 359.265625 C 438.0625 359.261719 439.28125 358.910156 440.378906 358.644531 C 442.828125 358.042969 445.359375 357.675781 447.867188 357.675781 C 449.070312 357.675781 450.269531 357.757812 451.449219 357.941406 C 454.265625 358.382812 457.089844 359.691406 459.203125 361.625 C 461.320312 363.566406 462.722656 366.101562 462.824219 369.058594 C 462.851562 369.84375 462.972656 370.515625 463.199219 371.09375 C 463.371094 371.523438 463.605469 371.898438 463.898438 372.210938 C 464.335938 372.675781 464.890625 372.976562 465.480469 373.152344 C 466.074219 373.324219 466.710938 373.386719 467.386719 373.386719 C 467.863281 373.386719 468.355469 373.355469 468.867188 373.308594 C 469.589844 373.242188 470.3125 373.210938 471.039062 373.210938 C 473.246094 373.210938 475.449219 373.507812 477.621094 374.019531 C 483.1875 375.335938 488.1875 378.433594 492.058594 382.632812 C 496.414062 387.359375 498.472656 393.585938 498.472656 399.886719 C 498.472656 404.996094 497.117188 410.144531 494.554688 414.542969 Z M 494.550781 376.253906 C 490.78125 372.691406 486.164062 370.175781 481.296875 368.5625 C 478.824219 367.746094 476.261719 367.328125 473.714844 367.078125 C 472.863281 366.996094 472.019531 366.972656 471.179688 366.972656 C 470.84375 366.972656 470.507812 366.976562 470.167969 366.980469 C 469.832031 366.988281 469.476562 367.035156 469.109375 367.085938 C 468.996094 367.101562 468.886719 367.117188 468.773438 367.132812 C 468.71875 366.402344 468.667969 365.628906 468.464844 364.882812 C 468.019531 363.269531 467.214844 361.777344 466.351562 360.4375 C 464.527344 357.613281 461.851562 355.410156 458.945312 353.863281 C 455.566406 352.074219 451.710938 351.496094 448.03125 351.429688 C 447.90625 351.429688 447.78125 351.425781 447.660156 351.425781 C 445.796875 351.425781 443.96875 351.675781 442.1875 351.929688 C 441.222656 352.074219 440.230469 352.394531 439.28125 352.667969 C 439.253906 352.234375 439.222656 351.796875 439.1875 351.375 C 439.074219 349.980469 438.863281 348.601562 438.628906 347.25 C 438.113281 344.230469 437.179688 341.308594 436.035156 338.503906 C 433.8125 333.058594 430.570312 328.15625 426.652344 323.804688 C 418.328125 314.554688 406.898438 309.21875 394.707031 307.597656 C 392.324219 307.28125 389.925781 307.128906 387.53125 307.128906 C 376.820312 307.132812 366.125 310.167969 356.738281 315.105469 C 350.921875 318.171875 345.484375 322.203125 341.070312 327.117188 C 338.972656 329.445312 337.183594 332.054688 335.742188 334.828125 C 335.539062 335.222656 335.3125 335.4375 335.054688 335.578125 C 334.796875 335.722656 334.484375 335.792969 334.097656 335.792969 C 333.300781 335.796875 332.234375 335.460938 331.191406 335.039062 C 330.136719 334.625 329.113281 334.140625 328.210938 333.910156 C 326.175781 333.398438 324.085938 333.148438 321.996094 333.148438 C 316.222656 333.152344 310.46875 335.058594 305.921875 338.660156 C 303.117188 340.882812 300.832031 343.601562 299.050781 346.6875 C 298.21875 348.128906 297.597656 349.667969 297.046875 351.179688 C 296.835938 351.773438 296.710938 352.4375 296.597656 353.105469 C 296.523438 353.550781 296.453125 353.992188 296.378906 354.394531 C 295.664062 354.386719 294.871094 354.316406 294.117188 354.316406 C 293.871094 354.316406 293.632812 354.324219 293.394531 354.34375 C 291.546875 354.515625 289.734375 354.882812 287.960938 355.363281 C 284.378906 356.335938 280.996094 358.054688 277.992188 360.15625 C 272.113281 364.269531 267.722656 370.300781 265.796875 377.222656 C 265.109375 379.6875 264.785156 382.210938 264.785156 384.734375 C 264.785156 390.210938 266.316406 395.664062 269.023438 400.453125 C 271.65625 405.109375 275.40625 409.136719 279.953125 411.929688 C 279.945312 412.089844 279.929688 412.253906 279.929688 412.414062 C 279.925781 413.835938 280.265625 415.175781 280.847656 416.398438 C 281.726562 418.230469 283.152344 419.789062 284.835938 421.011719 C 286.527344 422.234375 288.488281 423.117188 290.476562 423.589844 C 291.445312 423.816406 292.417969 423.921875 293.378906 423.921875 C 296.105469 423.917969 298.738281 423.097656 301.164062 422.011719 C 303.101562 421.144531 304.839844 419.894531 306.4375 418.628906 C 307.128906 418.078125 307.804688 417.375 308.472656 416.699219 C 308.628906 417.191406 308.789062 417.683594 308.988281 418.140625 C 309.804688 420.003906 310.742188 421.785156 311.851562 423.5 C 313.863281 426.613281 316.515625 429.25 319.625 431.261719 C 322.652344 433.21875 326.277344 434.085938 329.773438 434.253906 C 329.988281 434.261719 330.199219 434.265625 330.414062 434.265625 C 332.097656 434.265625 333.78125 433.96875 335.355469 433.539062 C 336.277344 433.285156 337.117188 432.890625 337.90625 432.539062 C 337.992188 432.761719 338.082031 432.984375 338.191406 433.203125 C 338.789062 434.421875 339.597656 435.449219 340.359375 436.433594 C 342.136719 438.722656 344.566406 440.472656 347 441.839844 C 351.027344 444.09375 355.550781 445.089844 360.078125 445.089844 C 361.429688 445.089844 362.777344 445 364.117188 444.832031 C 371.191406 443.925781 377.6875 440.910156 383.824219 437.667969 C 384.417969 437.355469 385 437.035156 385.582031 436.71875 C 386.242188 437.640625 386.929688 438.535156 387.632812 439.398438 C 389.648438 441.886719 392.003906 444.058594 394.507812 446.003906 C 402.453125 452.179688 412.179688 455.5 422.117188 455.5 C 424.292969 455.5 426.480469 455.339844 428.664062 455.015625 C 440.585938 453.242188 451.265625 445.980469 458.1875 436.347656 C 458.894531 435.359375 459.527344 434.332031 460.132812 433.308594 C 460.332031 432.972656 460.496094 432.605469 460.65625 432.234375 C 460.726562 432.074219 460.792969 431.917969 460.863281 431.765625 C 461.015625 431.824219 461.167969 431.890625 461.324219 431.953125 C 461.691406 432.105469 462.054688 432.253906 462.417969 432.359375 C 463.582031 432.6875 464.757812 432.902344 465.914062 433.082031 C 467.652344 433.359375 469.394531 433.488281 471.140625 433.488281 C 471.984375 433.488281 472.832031 433.457031 473.679688 433.398438 C 478.886719 433.042969 483.925781 431.441406 488.457031 428.921875 C 493.136719 426.324219 496.84375 422.609375 499.535156 418.261719 C 502.226562 413.910156 503.90625 408.921875 504.550781 403.75 C 504.707031 402.460938 504.789062 401.171875 504.789062 399.886719 C 504.785156 391.007812 501.039062 382.382812 494.550781 376.253906 "/>
</g>
<path style=" stroke:none;fill-rule:nonzero;fill:rgb(100%,100%,100%);fill-opacity:1;" d="M 422.605469 351.496094 C 422.941406 351.714844 423.324219 351.808594 423.6875 351.808594 C 424.15625 351.808594 424.613281 351.660156 424.988281 351.363281 C 425.171875 351.214844 425.335938 351.023438 425.457031 350.792969 C 425.574219 350.5625 425.640625 350.296875 425.640625 350.023438 C 425.640625 349.8125 425.601562 349.597656 425.53125 349.386719 L 424.84375 349.621094 L 425.53125 349.386719 C 422.75 341.269531 417.976562 333.488281 411.621094 327.710938 C 405.269531 321.933594 397.308594 318.164062 388.238281 318.164062 C 387.03125 318.164062 385.800781 318.230469 384.554688 318.367188 C 383.980469 318.429688 383.496094 318.726562 383.199219 319.117188 C 382.898438 319.507812 382.761719 319.964844 382.757812 320.417969 C 382.761719 320.839844 382.878906 321.273438 383.175781 321.628906 C 383.320312 321.808594 383.515625 321.960938 383.738281 322.0625 C 383.964844 322.167969 384.21875 322.21875 384.480469 322.21875 C 384.558594 322.21875 384.636719 322.214844 384.710938 322.207031 C 385.847656 322.082031 386.964844 322.019531 388.058594 322.019531 C 396.21875 322.019531 403.355469 325.382812 409.132812 330.632812 C 414.902344 335.878906 419.28125 343.023438 421.839844 350.492188 C 421.984375 350.921875 422.265625 351.273438 422.605469 351.496094 "/>
<path style=" stroke:none;fill-rule:nonzero;fill:rgb(100%,100%,100%);fill-opacity:1;" d="M 293.421875 368.484375 C 293.183594 368.363281 292.910156 368.296875 292.625 368.296875 C 292.445312 368.296875 292.261719 368.324219 292.078125 368.375 C 288.925781 369.261719 285.558594 369.996094 282.636719 371.96875 C 280.023438 373.738281 278.375 376.453125 277.332031 379.246094 C 276.652344 381.070312 276.320312 383.109375 276.320312 385.183594 C 276.324219 387.652344 276.789062 390.175781 277.703125 392.472656 C 278.617188 394.769531 279.984375 396.84375 281.8125 398.382812 C 282.1875 398.703125 282.644531 398.855469 283.074219 398.855469 C 283.628906 398.855469 284.113281 398.625 284.480469 398.289062 C 284.839844 397.949219 285.101562 397.480469 285.105469 396.921875 C 285.105469 396.679688 285.050781 396.429688 284.9375 396.199219 C 284.828125 395.964844 284.660156 395.757812 284.449219 395.582031 C 283.011719 394.371094 281.96875 392.789062 281.285156 391.015625 C 280.597656 389.238281 280.277344 387.273438 280.277344 385.328125 C 280.277344 383.835938 280.464844 382.355469 280.820312 380.988281 C 281.203125 379.515625 281.808594 378.34375 282.589844 377.363281 C 283.761719 375.902344 285.339844 374.871094 287.164062 374.054688 C 288.984375 373.246094 291.042969 372.660156 293.109375 372.082031 C 293.550781 371.960938 293.921875 371.699219 294.15625 371.363281 C 294.390625 371.027344 294.488281 370.644531 294.488281 370.277344 C 294.484375 369.796875 294.324219 369.332031 294.011719 368.953125 C 293.855469 368.765625 293.65625 368.601562 293.421875 368.484375 "/>
<path style=" stroke:none;fill-rule:nonzero;fill:rgb(100%,100%,100%);fill-opacity:1;" d="M 330.003906 419.527344 C 329.886719 419.527344 329.769531 419.539062 329.648438 419.558594 C 329.339844 419.609375 329.03125 419.636719 328.722656 419.636719 C 327.550781 419.636719 326.390625 419.265625 325.417969 418.609375 C 324.449219 417.957031 323.671875 417.027344 323.246094 415.921875 C 323.085938 415.5 322.796875 415.160156 322.453125 414.949219 C 322.113281 414.738281 321.734375 414.648438 321.371094 414.644531 C 320.914062 414.648438 320.464844 414.785156 320.09375 415.074219 C 319.90625 415.21875 319.742188 415.40625 319.625 415.628906 C 319.507812 415.855469 319.4375 416.117188 319.4375 416.390625 C 319.4375 416.617188 319.484375 416.851562 319.574219 417.078125 C 321.074219 420.988281 324.738281 423.449219 328.800781 423.445312 C 329.371094 423.445312 329.949219 423.398438 330.53125 423.300781 C 330.984375 423.222656 331.386719 423 331.644531 422.671875 C 331.902344 422.34375 332.007812 421.953125 332.007812 421.589844 C 332.003906 421.082031 331.820312 420.597656 331.484375 420.207031 C 331.148438 419.816406 330.617188 419.523438 330.003906 419.527344 "/>
<path style=" stroke:none;fill-rule:nonzero;fill:rgb(100%,100%,100%);fill-opacity:1;" d="M 447.34375 422.574219 C 447.027344 422.398438 446.675781 422.304688 446.316406 422.304688 C 445.949219 422.304688 445.5625 422.402344 445.230469 422.640625 C 444.890625 422.871094 444.628906 423.242188 444.511719 423.683594 C 444.125 425.070312 443.421875 426.320312 442.480469 427.449219 C 441.074219 429.140625 439.140625 430.546875 437.039062 431.652344 C 434.9375 432.757812 432.679688 433.5625 430.640625 434.074219 C 428.632812 434.578125 426.554688 434.824219 424.472656 434.824219 C 420.644531 434.824219 416.796875 434 413.328125 432.46875 C 413.058594 432.351562 412.777344 432.292969 412.507812 432.292969 C 411.914062 432.292969 411.402344 432.5625 411.050781 432.929688 C 410.699219 433.296875 410.46875 433.777344 410.464844 434.316406 C 410.464844 434.617188 410.546875 434.9375 410.734375 435.214844 C 410.917969 435.496094 411.195312 435.71875 411.527344 435.863281 C 415.652344 437.683594 420.023438 438.605469 424.433594 438.601562 C 427.066406 438.605469 429.707031 438.277344 432.320312 437.617188 C 435.496094 436.820312 438.964844 435.3125 441.902344 433.152344 C 444.835938 430.992188 447.261719 428.167969 448.226562 424.707031 C 448.277344 424.527344 448.300781 424.347656 448.300781 424.167969 C 448.300781 423.882812 448.234375 423.609375 448.117188 423.371094 C 447.9375 423.015625 447.65625 422.75 447.34375 422.574219 "/>
<path style=" stroke:none;fill-rule:nonzero;fill:rgb(100%,100%,100%);fill-opacity:1;" d="M 471.4375 378.84375 L 471.378906 378.84375 C 471.097656 378.84375 470.828125 378.898438 470.589844 379.007812 C 470.226562 379.171875 469.953125 379.449219 469.78125 379.753906 C 469.609375 380.0625 469.53125 380.402344 469.53125 380.734375 C 469.53125 381.191406 469.675781 381.65625 469.992188 382.035156 C 470.152344 382.222656 470.355469 382.390625 470.597656 382.503906 C 470.835938 382.621094 471.113281 382.683594 471.398438 382.691406 C 476.203125 382.816406 480.40625 384.855469 483.453125 388.046875 C 486.5 391.234375 488.378906 395.570312 488.5 400.273438 C 488.507812 400.476562 488.507812 400.675781 488.507812 400.878906 C 488.511719 405 487.40625 409.125 485.164062 412.558594 C 483.824219 414.605469 482.070312 415.902344 480.039062 416.714844 C 478.011719 417.527344 475.703125 417.832031 473.335938 417.832031 C 472.816406 417.832031 472.296875 417.820312 471.777344 417.792969 L 471.664062 417.789062 C 471.390625 417.789062 471.125 417.84375 470.890625 417.949219 C 470.535156 418.109375 470.265625 418.382812 470.101562 418.6875 C 469.929688 418.992188 469.855469 419.324219 469.855469 419.652344 C 469.855469 420.105469 470 420.570312 470.3125 420.953125 C 470.621094 421.335938 471.128906 421.613281 471.703125 421.636719 C 472.277344 421.667969 472.84375 421.683594 473.410156 421.683594 C 476.054688 421.683594 478.628906 421.339844 481.011719 420.445312 C 483.394531 419.554688 485.582031 418.109375 487.417969 415.945312 C 489.265625 413.765625 490.496094 411.195312 491.261719 408.5 C 492.03125 405.800781 492.34375 402.976562 492.355469 400.257812 L 492.355469 400.167969 C 492.355469 394.441406 489.980469 389.179688 486.183594 385.324219 C 482.390625 381.464844 477.160156 378.996094 471.4375 378.84375 "/>
<path style=" stroke:none;fill-rule:nonzero;fill:rgb(100%,100%,100%);fill-opacity:1;" d="M 452.863281 362.886719 C 451.894531 361.882812 450.632812 361.304688 449.320312 360.960938 C 448.003906 360.617188 446.625 360.503906 445.347656 360.464844 L 445.28125 360.464844 C 445.003906 360.464844 444.730469 360.519531 444.492188 360.628906 C 444.132812 360.789062 443.855469 361.066406 443.6875 361.371094 C 443.515625 361.679688 443.4375 362.015625 443.4375 362.351562 C 443.441406 362.804688 443.582031 363.269531 443.898438 363.652344 C 444.058594 363.839844 444.261719 364.007812 444.503906 364.121094 C 444.742188 364.238281 445.015625 364.304688 445.304688 364.3125 C 446.378906 364.339844 447.636719 364.386719 448.636719 364.699219 C 449.136719 364.851562 449.5625 365.0625 449.890625 365.34375 C 450.214844 365.625 450.449219 365.964844 450.59375 366.46875 C 450.714844 366.90625 450.976562 367.277344 451.3125 367.511719 C 451.648438 367.746094 452.03125 367.84375 452.398438 367.84375 C 452.882812 367.839844 453.347656 367.683594 453.726562 367.371094 C 453.917969 367.214844 454.082031 367.015625 454.199219 366.777344 C 454.316406 366.542969 454.386719 366.269531 454.386719 365.984375 C 454.386719 365.800781 454.359375 365.621094 454.308594 365.441406 C 454.019531 364.402344 453.515625 363.550781 452.863281 362.886719 "/>
</g>
</svg>
